<mxfile host="app.diagrams.net" modified="2024-07-15T03:14:28.461Z" agent="Mozilla/5.0 (Windows NT 10.0; Win64; x64) AppleWebKit/537.36 (KHTML, like Gecko) Chrome/126.0.0.0 Safari/537.36" etag="LXp3aK_9rMYh07XORzJA" version="24.6.5" type="github">
  <diagram name="第 1 页" id="e6ArYuIVliX8Lcg1APL-">
    <mxGraphModel dx="1050" dy="565" grid="1" gridSize="10" guides="1" tooltips="1" connect="1" arrows="1" fold="1" page="1" pageScale="1" pageWidth="827" pageHeight="1169" math="0" shadow="0">
      <root>
        <mxCell id="0" />
        <mxCell id="1" parent="0" />
        <mxCell id="lyQx6tdOUZ4mkUfzSbV1-1" value="&lt;p class=&quot;MsoNormal&quot;&gt;&lt;span style=&quot;mso-spacerun:&#39;yes&#39;;font-family:仿宋;mso-ascii-font-family:等线;&lt;br/&gt;mso-hansi-font-family:等线;mso-bidi-font-family:&#39;Times New Roman&#39;;font-size:12.0000pt;&lt;br/&gt;mso-font-kerning:1.0000pt;&quot;&gt;推流程序启动&lt;/span&gt;&lt;/p&gt;" style="rounded=1;whiteSpace=wrap;html=1;" vertex="1" parent="1">
          <mxGeometry x="300" y="80" width="120" height="60" as="geometry" />
        </mxCell>
        <mxCell id="lyQx6tdOUZ4mkUfzSbV1-2" value="读取&lt;span style=&quot;font-family: 等线; font-size: 12pt; background-color: initial;&quot;&gt;userConf.json&lt;/span&gt;" style="rounded=0;whiteSpace=wrap;html=1;" vertex="1" parent="1">
          <mxGeometry x="300" y="190" width="120" height="60" as="geometry" />
        </mxCell>
        <mxCell id="lyQx6tdOUZ4mkUfzSbV1-3" value="从云控接收推流指令" style="rounded=0;whiteSpace=wrap;html=1;" vertex="1" parent="1">
          <mxGeometry x="300" y="290" width="120" height="60" as="geometry" />
        </mxCell>
        <mxCell id="lyQx6tdOUZ4mkUfzSbV1-4" value="云控" style="ellipse;shape=cloud;whiteSpace=wrap;html=1;" vertex="1" parent="1">
          <mxGeometry x="630" y="340" width="120" height="80" as="geometry" />
        </mxCell>
        <mxCell id="lyQx6tdOUZ4mkUfzSbV1-5" value="" style="endArrow=classic;html=1;rounded=0;entryX=1;entryY=0.5;entryDx=0;entryDy=0;exitX=0.07;exitY=0.4;exitDx=0;exitDy=0;exitPerimeter=0;" edge="1" parent="1" source="lyQx6tdOUZ4mkUfzSbV1-4" target="lyQx6tdOUZ4mkUfzSbV1-3">
          <mxGeometry width="50" height="50" relative="1" as="geometry">
            <mxPoint x="390" y="360" as="sourcePoint" />
            <mxPoint x="440" y="310" as="targetPoint" />
          </mxGeometry>
        </mxCell>
        <mxCell id="lyQx6tdOUZ4mkUfzSbV1-6" value="&lt;p class=&quot;MsoNormal&quot;&gt;&lt;span style=&quot;mso-spacerun:&#39;yes&#39;;font-family:仿宋;mso-ascii-font-family:等线;&lt;br/&gt;mso-hansi-font-family:等线;mso-bidi-font-family:&#39;Times New Roman&#39;;font-size:12.0000pt;&lt;br/&gt;mso-font-kerning:1.0000pt;&quot;&gt;初始化推流&lt;/span&gt;&lt;/p&gt;&lt;p class=&quot;MsoNormal&quot;&gt;&lt;span style=&quot;mso-spacerun:&#39;yes&#39;;font-family:仿宋;mso-ascii-font-family:等线;&lt;br/&gt;mso-hansi-font-family:等线;mso-bidi-font-family:&#39;Times New Roman&#39;;font-size:12.0000pt;&lt;br/&gt;mso-font-kerning:1.0000pt;&quot;&gt;相&lt;/span&gt;&lt;span style=&quot;background-color: initial; font-family: 仿宋; font-size: 12pt;&quot;&gt;关&lt;/span&gt;&lt;span style=&quot;background-color: initial; font-family: 仿宋; font-size: 12pt;&quot;&gt;指针&lt;/span&gt;&lt;/p&gt;" style="rhombus;whiteSpace=wrap;html=1;" vertex="1" parent="1">
          <mxGeometry x="280" y="390" width="160" height="80" as="geometry" />
        </mxCell>
        <mxCell id="lyQx6tdOUZ4mkUfzSbV1-7" value="开始推流" style="rounded=0;whiteSpace=wrap;html=1;" vertex="1" parent="1">
          <mxGeometry x="440" y="540" width="120" height="60" as="geometry" />
        </mxCell>
        <mxCell id="lyQx6tdOUZ4mkUfzSbV1-8" value="存异常日志" style="rounded=0;whiteSpace=wrap;html=1;" vertex="1" parent="1">
          <mxGeometry x="160" y="540" width="120" height="60" as="geometry" />
        </mxCell>
        <mxCell id="lyQx6tdOUZ4mkUfzSbV1-9" value="从云控接收结束推流指令" style="rounded=0;whiteSpace=wrap;html=1;" vertex="1" parent="1">
          <mxGeometry x="300" y="640" width="120" height="60" as="geometry" />
        </mxCell>
        <mxCell id="lyQx6tdOUZ4mkUfzSbV1-10" value="&lt;p class=&quot;MsoNormal&quot;&gt;&lt;span style=&quot;mso-spacerun:&#39;yes&#39;;font-family:仿宋;mso-ascii-font-family:等线;&lt;br/&gt;mso-hansi-font-family:等线;mso-bidi-font-family:&#39;Times New Roman&#39;;font-size:12.0000pt;&lt;br/&gt;mso-font-kerning:1.0000pt;&quot;&gt;回收推流&lt;/span&gt;&lt;/p&gt;&lt;p class=&quot;MsoNormal&quot;&gt;&lt;span style=&quot;mso-spacerun:&#39;yes&#39;;font-family:仿宋;mso-ascii-font-family:等线;&lt;br/&gt;mso-hansi-font-family:等线;mso-bidi-font-family:&#39;Times New Roman&#39;;font-size:12.0000pt;&lt;br/&gt;mso-font-kerning:1.0000pt;&quot;&gt;相&lt;/span&gt;&lt;span style=&quot;background-color: initial; font-family: 仿宋; font-size: 12pt;&quot;&gt;关&lt;/span&gt;&lt;span style=&quot;background-color: initial; font-family: 仿宋; font-size: 12pt;&quot;&gt;指针&lt;/span&gt;&lt;/p&gt;" style="rhombus;whiteSpace=wrap;html=1;" vertex="1" parent="1">
          <mxGeometry x="280" y="850" width="160" height="80" as="geometry" />
        </mxCell>
        <mxCell id="lyQx6tdOUZ4mkUfzSbV1-11" value="结束推流" style="rounded=0;whiteSpace=wrap;html=1;" vertex="1" parent="1">
          <mxGeometry x="300" y="760" width="120" height="60" as="geometry" />
        </mxCell>
        <mxCell id="lyQx6tdOUZ4mkUfzSbV1-12" value="结束" style="rounded=1;whiteSpace=wrap;html=1;" vertex="1" parent="1">
          <mxGeometry x="300" y="1000" width="120" height="60" as="geometry" />
        </mxCell>
      </root>
    </mxGraphModel>
  </diagram>
</mxfile>
